%TF.GenerationSoftware,KiCad,Pcbnew,9.0.5*%
%TF.CreationDate,2026-05-31T19:33:06+02:00*%
%TF.ProjectId,JiraLogger,4a697261-4c6f-4676-9765-722e6b696361,rev?*%
%TF.SameCoordinates,Original*%
%TF.FileFunction,Soldermask,Top*%
%TF.FilePolarity,Negative*%
%FSLAX46Y46*%
G04 Gerber Fmt 4.6, Leading zero omitted, Abs format (unit mm)*
G04 Created by KiCad (PCBNEW 9.0.5) date 2026-05-31 19:33:06*
%MOMM*%
%LPD*%
G01*
G04 APERTURE LIST*
G04 Aperture macros list*
%AMRoundRect*
0 Rectangle with rounded corners*
0 $1 Rounding radius*
0 $2 $3 $4 $5 $6 $7 $8 $9 X,Y pos of 4 corners*
0 Add a 4 corners polygon primitive as box body*
4,1,4,$2,$3,$4,$5,$6,$7,$8,$9,$2,$3,0*
0 Add four circle primitives for the rounded corners*
1,1,$1+$1,$2,$3*
1,1,$1+$1,$4,$5*
1,1,$1+$1,$6,$7*
1,1,$1+$1,$8,$9*
0 Add four rect primitives between the rounded corners*
20,1,$1+$1,$2,$3,$4,$5,0*
20,1,$1+$1,$4,$5,$6,$7,0*
20,1,$1+$1,$6,$7,$8,$9,0*
20,1,$1+$1,$8,$9,$2,$3,0*%
G04 Aperture macros list end*
%ADD10C,1.600000*%
%ADD11RoundRect,0.250000X0.550000X-0.550000X0.550000X0.550000X-0.550000X0.550000X-0.550000X-0.550000X0*%
%ADD12C,2.700000*%
%ADD13C,1.700000*%
%ADD14C,4.000000*%
%ADD15C,2.200000*%
%ADD16R,1.700000X1.700000*%
%ADD17C,1.320800*%
%ADD18C,2.006600*%
%ADD19RoundRect,0.250000X-0.625000X0.350000X-0.625000X-0.350000X0.625000X-0.350000X0.625000X0.350000X0*%
%ADD20O,1.750000X1.200000*%
%ADD21O,1.500000X1.050000*%
%ADD22R,1.500000X1.050000*%
%ADD23C,1.440000*%
G04 APERTURE END LIST*
D10*
%TO.C,D14*%
X117835000Y-134055000D03*
D11*
X117835000Y-141675000D03*
%TD*%
D12*
%TO.C,H8*%
X117735000Y-91465000D03*
%TD*%
D10*
%TO.C,D1*%
X79720000Y-76855000D03*
D11*
X79720000Y-84475000D03*
%TD*%
D10*
%TO.C,D6*%
X98720000Y-76855000D03*
D11*
X98720000Y-84475000D03*
%TD*%
D13*
%TO.C,SW18*%
X122215000Y-120045000D03*
D14*
X127295000Y-120045000D03*
D13*
X132375000Y-120045000D03*
D15*
X129835000Y-114965000D03*
X123485000Y-117505000D03*
%TD*%
D11*
%TO.C,D3*%
X79720000Y-122575000D03*
D10*
X79720000Y-114955000D03*
%TD*%
D13*
%TO.C,SW12*%
X103165000Y-100995000D03*
D14*
X108245000Y-100995000D03*
D13*
X113325000Y-100995000D03*
D15*
X110785000Y-95915000D03*
X104435000Y-98455000D03*
%TD*%
D11*
%TO.C,D10*%
X98720000Y-160685000D03*
D10*
X98720000Y-153065000D03*
%TD*%
D13*
%TO.C,SW14*%
X103165000Y-139095000D03*
D14*
X108245000Y-139095000D03*
D13*
X113325000Y-139095000D03*
D15*
X110785000Y-134015000D03*
X104435000Y-136555000D03*
%TD*%
D11*
%TO.C,D20*%
X136820000Y-160685000D03*
D10*
X136820000Y-153065000D03*
%TD*%
D13*
%TO.C,SW19*%
X122215000Y-139095000D03*
D14*
X127295000Y-139095000D03*
D13*
X132375000Y-139095000D03*
D15*
X129835000Y-134015000D03*
X123485000Y-136555000D03*
%TD*%
D11*
%TO.C,D18*%
X136820000Y-122575000D03*
D10*
X136820000Y-114955000D03*
%TD*%
D15*
%TO.C,SW11*%
X104435000Y-79405000D03*
X110785000Y-76865000D03*
D13*
X113325000Y-81945000D03*
D14*
X108245000Y-81945000D03*
D13*
X103165000Y-81945000D03*
%TD*%
%TO.C,SW7*%
X84115000Y-100995000D03*
D14*
X89195000Y-100995000D03*
D13*
X94275000Y-100995000D03*
D15*
X91735000Y-95915000D03*
X85385000Y-98455000D03*
%TD*%
D11*
%TO.C,D19*%
X136820000Y-141675000D03*
D10*
X136820000Y-134055000D03*
%TD*%
D13*
%TO.C,SW13*%
X103165000Y-120045000D03*
D14*
X108245000Y-120045000D03*
D13*
X113325000Y-120045000D03*
D15*
X110785000Y-114965000D03*
X104435000Y-117505000D03*
%TD*%
D13*
%TO.C,SW20*%
X122215000Y-158145000D03*
D14*
X127295000Y-158145000D03*
D13*
X132375000Y-158145000D03*
D15*
X129835000Y-153065000D03*
X123485000Y-155605000D03*
%TD*%
D13*
%TO.C,SW17*%
X122215000Y-100995000D03*
D14*
X127295000Y-100995000D03*
D13*
X132375000Y-100995000D03*
D15*
X129835000Y-95915000D03*
X123485000Y-98455000D03*
%TD*%
%TO.C,SW16*%
X123485000Y-79405000D03*
X129835000Y-76865000D03*
D13*
X132375000Y-81945000D03*
D14*
X127295000Y-81945000D03*
D13*
X122215000Y-81945000D03*
%TD*%
%TO.C,SW15*%
X103165000Y-158145000D03*
D14*
X108245000Y-158145000D03*
D13*
X113325000Y-158145000D03*
D15*
X110785000Y-153065000D03*
X104435000Y-155605000D03*
%TD*%
D13*
%TO.C,SW10*%
X84115000Y-158145000D03*
D14*
X89195000Y-158145000D03*
D13*
X94275000Y-158145000D03*
D15*
X91735000Y-153065000D03*
X85385000Y-155605000D03*
%TD*%
D13*
%TO.C,SW8*%
X84115000Y-120045000D03*
D14*
X89195000Y-120045000D03*
D13*
X94275000Y-120045000D03*
D15*
X91735000Y-114965000D03*
X85385000Y-117505000D03*
%TD*%
%TO.C,SW2*%
X66335000Y-98455000D03*
X72685000Y-95915000D03*
D13*
X75225000Y-100995000D03*
D14*
X70145000Y-100995000D03*
D13*
X65065000Y-100995000D03*
%TD*%
D15*
%TO.C,SW1*%
X66335000Y-79405000D03*
X72685000Y-76865000D03*
D13*
X75225000Y-81945000D03*
D14*
X70145000Y-81945000D03*
D13*
X65065000Y-81945000D03*
%TD*%
D15*
%TO.C,SW6*%
X85385000Y-79405000D03*
X91735000Y-76865000D03*
D13*
X94275000Y-81945000D03*
D14*
X89195000Y-81945000D03*
D13*
X84115000Y-81945000D03*
%TD*%
D15*
%TO.C,SW5*%
X66335000Y-155605000D03*
X72685000Y-153065000D03*
D13*
X75225000Y-158145000D03*
D14*
X70145000Y-158145000D03*
D13*
X65065000Y-158145000D03*
%TD*%
D15*
%TO.C,SW4*%
X66335000Y-136555000D03*
X72685000Y-134015000D03*
D13*
X75225000Y-139095000D03*
D14*
X70145000Y-139095000D03*
D13*
X65065000Y-139095000D03*
%TD*%
D15*
%TO.C,SW3*%
X66335000Y-117505000D03*
X72685000Y-114965000D03*
D13*
X75225000Y-120045000D03*
D14*
X70145000Y-120045000D03*
D13*
X65065000Y-120045000D03*
%TD*%
D10*
%TO.C,D16*%
X136820000Y-76855000D03*
D11*
X136820000Y-84475000D03*
%TD*%
D13*
%TO.C,SW9*%
X84115000Y-139095000D03*
D14*
X89195000Y-139095000D03*
D13*
X94275000Y-139095000D03*
D15*
X91735000Y-134015000D03*
X85385000Y-136555000D03*
%TD*%
D11*
%TO.C,D15*%
X117820000Y-160685000D03*
D10*
X117820000Y-153065000D03*
%TD*%
D11*
%TO.C,D17*%
X136820000Y-103475000D03*
D10*
X136820000Y-95855000D03*
%TD*%
D11*
%TO.C,D9*%
X98720000Y-141675000D03*
D10*
X98720000Y-134055000D03*
%TD*%
D11*
%TO.C,D13*%
X117820000Y-122575000D03*
D10*
X117820000Y-114955000D03*
%TD*%
D11*
%TO.C,D12*%
X117720000Y-103485000D03*
D10*
X117720000Y-95865000D03*
%TD*%
D11*
%TO.C,D7*%
X98720000Y-103575000D03*
D10*
X98720000Y-95955000D03*
%TD*%
D11*
%TO.C,D2*%
X79620000Y-103575000D03*
D10*
X79620000Y-95955000D03*
%TD*%
D11*
%TO.C,D8*%
X98720000Y-122575000D03*
D10*
X98720000Y-114955000D03*
%TD*%
D11*
%TO.C,D4*%
X79720000Y-141675000D03*
D10*
X79720000Y-134055000D03*
%TD*%
%TO.C,D11*%
X117720000Y-76855000D03*
D11*
X117720000Y-84475000D03*
%TD*%
%TO.C,D5*%
X79720000Y-160675000D03*
D10*
X79720000Y-153055000D03*
%TD*%
D12*
%TO.C,H7*%
X79635000Y-91465000D03*
%TD*%
D16*
%TO.C,J3*%
X120985000Y-29940000D03*
D13*
X123525000Y-29940000D03*
%TD*%
D17*
%TO.C,SW21*%
X123529100Y-25052550D03*
X121529100Y-25052550D03*
X119529099Y-25052550D03*
D18*
X125629099Y-25052550D03*
X117429101Y-25052550D03*
%TD*%
D19*
%TO.C,J1*%
X114485000Y-63065000D03*
D20*
X114485000Y-65065000D03*
%TD*%
D12*
%TO.C,H6*%
X117735000Y-148565000D03*
%TD*%
%TO.C,H5*%
X79635000Y-148565000D03*
%TD*%
D21*
%TO.C,Q1*%
X128475000Y-60135000D03*
X128475000Y-58865000D03*
D22*
X128475000Y-57595000D03*
%TD*%
D23*
%TO.C,RV1*%
X131895000Y-53085000D03*
X134435000Y-50545000D03*
X131895000Y-48005000D03*
%TD*%
%TO.C,RV2*%
X131895000Y-37025000D03*
X134435000Y-39565000D03*
X131895000Y-42105000D03*
%TD*%
D16*
%TO.C,EXT1*%
X113835000Y-32290000D03*
D13*
X111295000Y-32290000D03*
X108755000Y-32290000D03*
X106215000Y-32290000D03*
X103675000Y-32290000D03*
X101135000Y-32290000D03*
X98595000Y-32290000D03*
X96055000Y-32290000D03*
X93515000Y-32290000D03*
X90975000Y-32290000D03*
X88435000Y-32290000D03*
X85895000Y-32290000D03*
X83355000Y-32290000D03*
X80815000Y-32290000D03*
X78275000Y-32290000D03*
X75735000Y-32290000D03*
X73195000Y-32290000D03*
X70655000Y-32290000D03*
X68115000Y-32290000D03*
X65575000Y-32290000D03*
X63035000Y-32290000D03*
X60495000Y-32290000D03*
%TD*%
%TO.C,EXT2*%
X60495000Y-57690000D03*
X63035000Y-57690000D03*
X65575000Y-57690000D03*
X68115000Y-57690000D03*
X70655000Y-57690000D03*
X73195000Y-57690000D03*
X75735000Y-57690000D03*
X78275000Y-57690000D03*
X80815000Y-57690000D03*
X83355000Y-57690000D03*
X85895000Y-57690000D03*
X88435000Y-57690000D03*
X90975000Y-57690000D03*
X93515000Y-57690000D03*
X96055000Y-57690000D03*
X98595000Y-57690000D03*
X101135000Y-57690000D03*
X103675000Y-57690000D03*
X106215000Y-57690000D03*
X108755000Y-57690000D03*
X111295000Y-57690000D03*
D16*
X113835000Y-57690000D03*
%TD*%
D10*
%TO.C,R4*%
X124035000Y-57885000D03*
X124035000Y-68045000D03*
%TD*%
%TO.C,R3*%
X119535000Y-57885000D03*
X119535000Y-68045000D03*
%TD*%
D14*
%TO.C,H1*%
X63735000Y-25065000D03*
%TD*%
%TO.C,H2*%
X133735000Y-25065000D03*
%TD*%
%TO.C,H3*%
X63735000Y-65065000D03*
%TD*%
%TO.C,H4*%
X133735000Y-65065000D03*
%TD*%
D16*
%TO.C,J2*%
X70235000Y-24065000D03*
D13*
X72775000Y-24065000D03*
X75315000Y-24065000D03*
X77855000Y-24065000D03*
X80395000Y-24065000D03*
X82935000Y-24065000D03*
X85475000Y-24065000D03*
X88015000Y-24065000D03*
X90555000Y-24065000D03*
X93095000Y-24065000D03*
X95635000Y-24065000D03*
X98175000Y-24065000D03*
X100715000Y-24065000D03*
X103255000Y-24065000D03*
X105795000Y-24065000D03*
X108335000Y-24065000D03*
%TD*%
M02*
