M48
; DRILL file {KiCad 9.0.5} date 2026-05-31T19:34:34+0200
; FORMAT={-:-/ absolute / metric / decimal}
; #@! TF.CreationDate,2026-05-31T19:34:34+02:00
; #@! TF.GenerationSoftware,Kicad,Pcbnew,9.0.5
; #@! TF.FileFunction,Plated,1,2,PTH
FMAT,2
METRIC
; #@! TA.AperFunction,Plated,PTH,ViaDrill
T1C0.300
; #@! TA.AperFunction,Plated,PTH,ComponentDrill
T2C0.750
; #@! TA.AperFunction,Plated,PTH,ComponentDrill
T3C0.800
; #@! TA.AperFunction,Plated,PTH,ComponentDrill
T4C0.813
; #@! TA.AperFunction,Plated,PTH,ComponentDrill
T5C1.000
; #@! TA.AperFunction,Plated,PTH,ComponentDrill
T6C1.499
; #@! TA.AperFunction,Plated,PTH,ComponentDrill
T7C1.500
%
G90
G05
T1
X70.435Y-27.165
X73.735Y-61.965
X76.835Y-44.765
X80.435Y-109.565
X80.535Y-73.365
X80.535Y-128.665
X80.535Y-166.665
X81.335Y-86.765
X81.535Y-143.465
X87.335Y-27.265
X100.035Y-73.365
X100.035Y-90.465
X100.035Y-109.565
X100.035Y-128.765
X100.035Y-147.865
X100.035Y-166.665
X100.435Y-44.665
X102.935Y-27.365
X106.215Y-38.865
X115.935Y-30.065
X115.935Y-35.965
X116.735Y-35.965
X119.235Y-86.765
X119.235Y-109.565
X119.235Y-128.765
X119.235Y-166.665
X119.535Y-143.565
X121.335Y-54.865
X128.035Y-52.865
X133.335Y-54.865
T2
X114.485Y-63.065
X114.485Y-65.065
X128.475Y-57.595
X128.475Y-58.865
X128.475Y-60.135
T3
X79.62Y-95.955
X79.62Y-103.575
X79.72Y-76.855
X79.72Y-84.475
X79.72Y-114.955
X79.72Y-122.575
X79.72Y-134.055
X79.72Y-141.675
X79.72Y-153.055
X79.72Y-160.675
X98.72Y-76.855
X98.72Y-84.475
X98.72Y-95.955
X98.72Y-103.575
X98.72Y-114.955
X98.72Y-122.575
X98.72Y-134.055
X98.72Y-141.675
X98.72Y-153.065
X98.72Y-160.685
X117.72Y-76.855
X117.72Y-84.475
X117.72Y-95.865
X117.72Y-103.485
X117.82Y-114.955
X117.82Y-122.575
X117.82Y-153.065
X117.82Y-160.685
X117.835Y-134.055
X117.835Y-141.675
X119.535Y-57.885
X119.535Y-68.045
X124.035Y-57.885
X124.035Y-68.045
X131.895Y-37.025
X131.895Y-42.105
X131.895Y-48.005
X131.895Y-53.085
X134.435Y-39.565
X134.435Y-50.545
X136.82Y-76.855
X136.82Y-84.475
X136.82Y-95.855
X136.82Y-103.475
X136.82Y-114.955
X136.82Y-122.575
X136.82Y-134.055
X136.82Y-141.675
X136.82Y-153.065
X136.82Y-160.685
T4
X119.529Y-25.053
X121.529Y-25.053
X123.529Y-25.053
T5
X60.495Y-32.29
X60.495Y-57.69
X63.035Y-32.29
X63.035Y-57.69
X65.575Y-32.29
X65.575Y-57.69
X68.115Y-32.29
X68.115Y-57.69
X70.235Y-24.065
X70.655Y-32.29
X70.655Y-57.69
X72.775Y-24.065
X73.195Y-32.29
X73.195Y-57.69
X75.315Y-24.065
X75.735Y-32.29
X75.735Y-57.69
X77.855Y-24.065
X78.275Y-32.29
X78.275Y-57.69
X80.395Y-24.065
X80.815Y-32.29
X80.815Y-57.69
X82.935Y-24.065
X83.355Y-32.29
X83.355Y-57.69
X85.475Y-24.065
X85.895Y-32.29
X85.895Y-57.69
X88.015Y-24.065
X88.435Y-32.29
X88.435Y-57.69
X90.555Y-24.065
X90.975Y-32.29
X90.975Y-57.69
X93.095Y-24.065
X93.515Y-32.29
X93.515Y-57.69
X95.635Y-24.065
X96.055Y-32.29
X96.055Y-57.69
X98.175Y-24.065
X98.595Y-32.29
X98.595Y-57.69
X100.715Y-24.065
X101.135Y-32.29
X101.135Y-57.69
X103.255Y-24.065
X103.675Y-32.29
X103.675Y-57.69
X105.795Y-24.065
X106.215Y-32.29
X106.215Y-57.69
X108.335Y-24.065
X108.755Y-32.29
X108.755Y-57.69
X111.295Y-32.29
X111.295Y-57.69
X113.835Y-32.29
X113.835Y-57.69
X120.985Y-29.94
X123.525Y-29.94
T6
X117.429Y-25.053
X125.629Y-25.053
T7
X66.335Y-79.405
X66.335Y-98.455
X66.335Y-117.505
X66.335Y-136.555
X66.335Y-155.605
X72.685Y-76.865
X72.685Y-95.915
X72.685Y-114.965
X72.685Y-134.015
X72.685Y-153.065
X85.385Y-79.405
X85.385Y-98.455
X85.385Y-117.505
X85.385Y-136.555
X85.385Y-155.605
X91.735Y-76.865
X91.735Y-95.915
X91.735Y-114.965
X91.735Y-134.015
X91.735Y-153.065
X104.435Y-79.405
X104.435Y-98.455
X104.435Y-117.505
X104.435Y-136.555
X104.435Y-155.605
X110.785Y-76.865
X110.785Y-95.915
X110.785Y-114.965
X110.785Y-134.015
X110.785Y-153.065
X123.485Y-79.405
X123.485Y-98.455
X123.485Y-117.505
X123.485Y-136.555
X123.485Y-155.605
X129.835Y-76.865
X129.835Y-95.915
X129.835Y-114.965
X129.835Y-134.015
X129.835Y-153.065
M30
