%TF.GenerationSoftware,KiCad,Pcbnew,9.0.5*%
%TF.CreationDate,2026-05-31T19:33:06+02:00*%
%TF.ProjectId,JiraLogger,4a697261-4c6f-4676-9765-722e6b696361,rev?*%
%TF.SameCoordinates,Original*%
%TF.FileFunction,Legend,Bot*%
%TF.FilePolarity,Positive*%
%FSLAX46Y46*%
G04 Gerber Fmt 4.6, Leading zero omitted, Abs format (unit mm)*
G04 Created by KiCad (PCBNEW 9.0.5) date 2026-05-31 19:33:06*
%MOMM*%
%LPD*%
G01*
G04 APERTURE LIST*
%ADD10C,0.100000*%
%ADD11C,0.508000*%
G04 APERTURE END LIST*
D10*
X136683609Y-36702217D02*
X136731228Y-36845074D01*
X136731228Y-36845074D02*
X136778847Y-36892693D01*
X136778847Y-36892693D02*
X136874085Y-36940312D01*
X136874085Y-36940312D02*
X137016942Y-36940312D01*
X137016942Y-36940312D02*
X137112180Y-36892693D01*
X137112180Y-36892693D02*
X137159800Y-36845074D01*
X137159800Y-36845074D02*
X137207419Y-36749836D01*
X137207419Y-36749836D02*
X137207419Y-36368884D01*
X137207419Y-36368884D02*
X136207419Y-36368884D01*
X136207419Y-36368884D02*
X136207419Y-36702217D01*
X136207419Y-36702217D02*
X136255038Y-36797455D01*
X136255038Y-36797455D02*
X136302657Y-36845074D01*
X136302657Y-36845074D02*
X136397895Y-36892693D01*
X136397895Y-36892693D02*
X136493133Y-36892693D01*
X136493133Y-36892693D02*
X136588371Y-36845074D01*
X136588371Y-36845074D02*
X136635990Y-36797455D01*
X136635990Y-36797455D02*
X136683609Y-36702217D01*
X136683609Y-36702217D02*
X136683609Y-36368884D01*
X137207419Y-37797455D02*
X136683609Y-37797455D01*
X136683609Y-37797455D02*
X136588371Y-37749836D01*
X136588371Y-37749836D02*
X136540752Y-37654598D01*
X136540752Y-37654598D02*
X136540752Y-37464122D01*
X136540752Y-37464122D02*
X136588371Y-37368884D01*
X137159800Y-37797455D02*
X137207419Y-37702217D01*
X137207419Y-37702217D02*
X137207419Y-37464122D01*
X137207419Y-37464122D02*
X137159800Y-37368884D01*
X137159800Y-37368884D02*
X137064561Y-37321265D01*
X137064561Y-37321265D02*
X136969323Y-37321265D01*
X136969323Y-37321265D02*
X136874085Y-37368884D01*
X136874085Y-37368884D02*
X136826466Y-37464122D01*
X136826466Y-37464122D02*
X136826466Y-37702217D01*
X136826466Y-37702217D02*
X136778847Y-37797455D01*
X137159800Y-38702217D02*
X137207419Y-38606979D01*
X137207419Y-38606979D02*
X137207419Y-38416503D01*
X137207419Y-38416503D02*
X137159800Y-38321265D01*
X137159800Y-38321265D02*
X137112180Y-38273646D01*
X137112180Y-38273646D02*
X137016942Y-38226027D01*
X137016942Y-38226027D02*
X136731228Y-38226027D01*
X136731228Y-38226027D02*
X136635990Y-38273646D01*
X136635990Y-38273646D02*
X136588371Y-38321265D01*
X136588371Y-38321265D02*
X136540752Y-38416503D01*
X136540752Y-38416503D02*
X136540752Y-38606979D01*
X136540752Y-38606979D02*
X136588371Y-38702217D01*
X137207419Y-39130789D02*
X136207419Y-39130789D01*
X136826466Y-39226027D02*
X137207419Y-39511741D01*
X136540752Y-39511741D02*
X136921704Y-39130789D01*
X137207419Y-40083170D02*
X137159800Y-39987932D01*
X137159800Y-39987932D02*
X137064561Y-39940313D01*
X137064561Y-39940313D02*
X136207419Y-39940313D01*
X137207419Y-40464123D02*
X136540752Y-40464123D01*
X136207419Y-40464123D02*
X136255038Y-40416504D01*
X136255038Y-40416504D02*
X136302657Y-40464123D01*
X136302657Y-40464123D02*
X136255038Y-40511742D01*
X136255038Y-40511742D02*
X136207419Y-40464123D01*
X136207419Y-40464123D02*
X136302657Y-40464123D01*
X136540752Y-41368884D02*
X137350276Y-41368884D01*
X137350276Y-41368884D02*
X137445514Y-41321265D01*
X137445514Y-41321265D02*
X137493133Y-41273646D01*
X137493133Y-41273646D02*
X137540752Y-41178408D01*
X137540752Y-41178408D02*
X137540752Y-41035551D01*
X137540752Y-41035551D02*
X137493133Y-40940313D01*
X137159800Y-41368884D02*
X137207419Y-41273646D01*
X137207419Y-41273646D02*
X137207419Y-41083170D01*
X137207419Y-41083170D02*
X137159800Y-40987932D01*
X137159800Y-40987932D02*
X137112180Y-40940313D01*
X137112180Y-40940313D02*
X137016942Y-40892694D01*
X137016942Y-40892694D02*
X136731228Y-40892694D01*
X136731228Y-40892694D02*
X136635990Y-40940313D01*
X136635990Y-40940313D02*
X136588371Y-40987932D01*
X136588371Y-40987932D02*
X136540752Y-41083170D01*
X136540752Y-41083170D02*
X136540752Y-41273646D01*
X136540752Y-41273646D02*
X136588371Y-41368884D01*
X137207419Y-41845075D02*
X136207419Y-41845075D01*
X137207419Y-42273646D02*
X136683609Y-42273646D01*
X136683609Y-42273646D02*
X136588371Y-42226027D01*
X136588371Y-42226027D02*
X136540752Y-42130789D01*
X136540752Y-42130789D02*
X136540752Y-41987932D01*
X136540752Y-41987932D02*
X136588371Y-41892694D01*
X136588371Y-41892694D02*
X136635990Y-41845075D01*
X136540752Y-42606980D02*
X136540752Y-42987932D01*
X136207419Y-42749837D02*
X137064561Y-42749837D01*
X137064561Y-42749837D02*
X137159800Y-42797456D01*
X137159800Y-42797456D02*
X137207419Y-42892694D01*
X137207419Y-42892694D02*
X137207419Y-42987932D01*
X137112180Y-48240312D02*
X137159800Y-48192693D01*
X137159800Y-48192693D02*
X137207419Y-48049836D01*
X137207419Y-48049836D02*
X137207419Y-47954598D01*
X137207419Y-47954598D02*
X137159800Y-47811741D01*
X137159800Y-47811741D02*
X137064561Y-47716503D01*
X137064561Y-47716503D02*
X136969323Y-47668884D01*
X136969323Y-47668884D02*
X136778847Y-47621265D01*
X136778847Y-47621265D02*
X136635990Y-47621265D01*
X136635990Y-47621265D02*
X136445514Y-47668884D01*
X136445514Y-47668884D02*
X136350276Y-47716503D01*
X136350276Y-47716503D02*
X136255038Y-47811741D01*
X136255038Y-47811741D02*
X136207419Y-47954598D01*
X136207419Y-47954598D02*
X136207419Y-48049836D01*
X136207419Y-48049836D02*
X136255038Y-48192693D01*
X136255038Y-48192693D02*
X136302657Y-48240312D01*
X137207419Y-48811741D02*
X137159800Y-48716503D01*
X137159800Y-48716503D02*
X137112180Y-48668884D01*
X137112180Y-48668884D02*
X137016942Y-48621265D01*
X137016942Y-48621265D02*
X136731228Y-48621265D01*
X136731228Y-48621265D02*
X136635990Y-48668884D01*
X136635990Y-48668884D02*
X136588371Y-48716503D01*
X136588371Y-48716503D02*
X136540752Y-48811741D01*
X136540752Y-48811741D02*
X136540752Y-48954598D01*
X136540752Y-48954598D02*
X136588371Y-49049836D01*
X136588371Y-49049836D02*
X136635990Y-49097455D01*
X136635990Y-49097455D02*
X136731228Y-49145074D01*
X136731228Y-49145074D02*
X137016942Y-49145074D01*
X137016942Y-49145074D02*
X137112180Y-49097455D01*
X137112180Y-49097455D02*
X137159800Y-49049836D01*
X137159800Y-49049836D02*
X137207419Y-48954598D01*
X137207419Y-48954598D02*
X137207419Y-48811741D01*
X136540752Y-49573646D02*
X137207419Y-49573646D01*
X136635990Y-49573646D02*
X136588371Y-49621265D01*
X136588371Y-49621265D02*
X136540752Y-49716503D01*
X136540752Y-49716503D02*
X136540752Y-49859360D01*
X136540752Y-49859360D02*
X136588371Y-49954598D01*
X136588371Y-49954598D02*
X136683609Y-50002217D01*
X136683609Y-50002217D02*
X137207419Y-50002217D01*
X136540752Y-50335551D02*
X136540752Y-50716503D01*
X136207419Y-50478408D02*
X137064561Y-50478408D01*
X137064561Y-50478408D02*
X137159800Y-50526027D01*
X137159800Y-50526027D02*
X137207419Y-50621265D01*
X137207419Y-50621265D02*
X137207419Y-50716503D01*
X137207419Y-51049837D02*
X136540752Y-51049837D01*
X136731228Y-51049837D02*
X136635990Y-51097456D01*
X136635990Y-51097456D02*
X136588371Y-51145075D01*
X136588371Y-51145075D02*
X136540752Y-51240313D01*
X136540752Y-51240313D02*
X136540752Y-51335551D01*
X137207419Y-52097456D02*
X136683609Y-52097456D01*
X136683609Y-52097456D02*
X136588371Y-52049837D01*
X136588371Y-52049837D02*
X136540752Y-51954599D01*
X136540752Y-51954599D02*
X136540752Y-51764123D01*
X136540752Y-51764123D02*
X136588371Y-51668885D01*
X137159800Y-52097456D02*
X137207419Y-52002218D01*
X137207419Y-52002218D02*
X137207419Y-51764123D01*
X137207419Y-51764123D02*
X137159800Y-51668885D01*
X137159800Y-51668885D02*
X137064561Y-51621266D01*
X137064561Y-51621266D02*
X136969323Y-51621266D01*
X136969323Y-51621266D02*
X136874085Y-51668885D01*
X136874085Y-51668885D02*
X136826466Y-51764123D01*
X136826466Y-51764123D02*
X136826466Y-52002218D01*
X136826466Y-52002218D02*
X136778847Y-52097456D01*
X137159800Y-52526028D02*
X137207419Y-52621266D01*
X137207419Y-52621266D02*
X137207419Y-52811742D01*
X137207419Y-52811742D02*
X137159800Y-52906980D01*
X137159800Y-52906980D02*
X137064561Y-52954599D01*
X137064561Y-52954599D02*
X137016942Y-52954599D01*
X137016942Y-52954599D02*
X136921704Y-52906980D01*
X136921704Y-52906980D02*
X136874085Y-52811742D01*
X136874085Y-52811742D02*
X136874085Y-52668885D01*
X136874085Y-52668885D02*
X136826466Y-52573647D01*
X136826466Y-52573647D02*
X136731228Y-52526028D01*
X136731228Y-52526028D02*
X136683609Y-52526028D01*
X136683609Y-52526028D02*
X136588371Y-52573647D01*
X136588371Y-52573647D02*
X136540752Y-52668885D01*
X136540752Y-52668885D02*
X136540752Y-52811742D01*
X136540752Y-52811742D02*
X136588371Y-52906980D01*
X136540752Y-53240314D02*
X136540752Y-53621266D01*
X136207419Y-53383171D02*
X137064561Y-53383171D01*
X137064561Y-53383171D02*
X137159800Y-53430790D01*
X137159800Y-53430790D02*
X137207419Y-53526028D01*
X137207419Y-53526028D02*
X137207419Y-53621266D01*
D11*
%TO.C,SW21*%
X128120400Y-25052550D02*
G75*
G02*
X127358400Y-25052550I-381000J0D01*
G01*
X127358400Y-25052550D02*
G75*
G02*
X128120400Y-25052550I381000J0D01*
G01*
%TD*%
M02*
