M48
; DRILL file {KiCad 9.0.5} date 2026-05-31T19:34:34+0200
; FORMAT={-:-/ absolute / metric / decimal}
; #@! TF.CreationDate,2026-05-31T19:34:34+02:00
; #@! TF.GenerationSoftware,Kicad,Pcbnew,9.0.5
; #@! TF.FileFunction,NonPlated,1,2,NPTH
FMAT,2
METRIC
; #@! TA.AperFunction,NonPlated,NPTH,ComponentDrill
T1C1.700
; #@! TA.AperFunction,NonPlated,NPTH,ComponentDrill
T2C2.700
; #@! TA.AperFunction,NonPlated,NPTH,ComponentDrill
T3C4.000
%
G90
G05
T1
X65.065Y-81.945
X65.065Y-100.995
X65.065Y-120.045
X65.065Y-139.095
X65.065Y-158.145
X75.225Y-81.945
X75.225Y-100.995
X75.225Y-120.045
X75.225Y-139.095
X75.225Y-158.145
X84.115Y-81.945
X84.115Y-100.995
X84.115Y-120.045
X84.115Y-139.095
X84.115Y-158.145
X94.275Y-81.945
X94.275Y-100.995
X94.275Y-120.045
X94.275Y-139.095
X94.275Y-158.145
X103.165Y-81.945
X103.165Y-100.995
X103.165Y-120.045
X103.165Y-139.095
X103.165Y-158.145
X113.325Y-81.945
X113.325Y-100.995
X113.325Y-120.045
X113.325Y-139.095
X113.325Y-158.145
X122.215Y-81.945
X122.215Y-100.995
X122.215Y-120.045
X122.215Y-139.095
X122.215Y-158.145
X132.375Y-81.945
X132.375Y-100.995
X132.375Y-120.045
X132.375Y-139.095
X132.375Y-158.145
T2
X79.635Y-91.465
X79.635Y-148.565
X117.735Y-91.465
X117.735Y-148.565
T3
X63.735Y-25.065
X63.735Y-65.065
X70.145Y-81.945
X70.145Y-100.995
X70.145Y-120.045
X70.145Y-139.095
X70.145Y-158.145
X89.195Y-81.945
X89.195Y-100.995
X89.195Y-120.045
X89.195Y-139.095
X89.195Y-158.145
X108.245Y-81.945
X108.245Y-100.995
X108.245Y-120.045
X108.245Y-139.095
X108.245Y-158.145
X127.295Y-81.945
X127.295Y-100.995
X127.295Y-120.045
X127.295Y-139.095
X127.295Y-158.145
X133.735Y-25.065
X133.735Y-65.065
M30
